# xmcd
#
# Track frame offsets:
#	150
#	15907
#	32547
#	48995
#	66247
#	83552
#	99120
#	110232
#	126747
#	141097
#	156220
#	176587
#
# Disc length: 2640 seconds
#
# Revision: 0
# Processed by: cddbd v1.5.2PL0 Copyright (c) Steve Scherf et al.
# Submitted via: audiograbber 1.83.01
#
DISCID=980a4e0c
DTITLE=Bogguss, Suzy - Suzy Bogguss
DYEAR=1999
DGENRE=Country
TTITLE0=Taking that red-eye home
TTITLE1=Goodnight
TTITLE2=Love is stronger
TTITLE3=Love is blind (Duet with T. Graham Brown)
TTITLE4=An empty heart and a harvest moon
TTITLE5=It's a perfect day (for a little rain)
TTITLE6=Love every time
TTITLE7=Hold me to it
TTITLE8=20 million things
TTITLE9=Hammer and nail
TTITLE10=Look what love has done to me
TTITLE11=No place to go
EXTD=
EXTT0=
EXTT1=
EXTT2=
EXTT3=
EXTT4=
EXTT5=
EXTT6=
EXTT7=
EXTT8=
EXTT9=
EXTT10=
EXTT11=
PLAYORDER=
